<?xml version="1.0" standalone="no"?>
<!DOCTYPE svg PUBLIC "-//W3C//DTD SVG 20010904//EN"
 "http://www.w3.org/TR/2001/REC-SVG-20010904/DTD/svg10.dtd">
<svg version="1.0" xmlns="http://www.w3.org/2000/svg"
 width="1280.000000pt" height="910.000000pt" viewBox="0 0 1280.000000 910.000000"
 preserveAspectRatio="xMidYMid meet">
<metadata>
Created by potrace 1.15, written by Peter Selinger 2001-2017
</metadata>
<g transform="translate(0.000000,910.000000) scale(0.100000,-0.100000)"
fill="#000000" stroke="none">
<path d="M7007 6486 c-32 -14 -75 -36 -96 -49 -87 -57 -186 -181 -228 -282
-16 -41 -21 -45 -43 -40 -44 11 -283 43 -405 55 -193 18 -185 15 -185 57 l0
36 -67 -6 c-38 -4 -98 -7 -135 -7 -62 0 -67 -1 -63 -20 4 -21 3 -21 -278 -13
-460 13 -1462 10 -1732 -6 -132 -7 -251 -14 -265 -15 -21 -1 -25 4 -28 33 l-3
34 -67 -7 c-37 -3 -95 -6 -129 -6 l-63 0 0 -40 c0 -26 -5 -40 -13 -40 -33 0
-558 -62 -715 -85 -318 -46 -888 -147 -901 -160 -2 -3 36 -3 85 0 101 6 875
31 1277 41 l267 7 0 -41 0 -42 -1018 0 c-778 0 -1021 -3 -1030 -12 -7 -7 -12
-29 -12 -49 0 -22 -6 -39 -14 -42 -36 -14 -81 -299 -58 -366 11 -31 10 -31
-57 -75 -64 -41 -139 -125 -124 -139 3 -3 -24 -75 -60 -159 -82 -195 -158
-398 -192 -513 -32 -110 -172 -764 -217 -1010 -30 -167 -32 -195 -31 -387 0
-171 -2 -208 -13 -208 -12 0 -14 -40 -14 -220 l0 -220 28 0 28 0 21 -352 c12
-193 20 -355 17 -360 -3 -4 -28 -8 -56 -8 -98 0 -166 -62 -176 -160 -7 -73 5
-117 45 -160 46 -52 79 -60 248 -60 135 0 146 -2 275 -40 128 -38 151 -41 435
-65 165 -14 338 -25 385 -25 l85 0 0 -163 c0 -127 4 -177 19 -231 73 -271 257
-501 495 -620 419 -210 922 -94 1201 275 145 193 211 428 189 671 -5 50 -8 93
-6 94 8 8 1453 23 2312 24 915 2 1802 17 2684 46 l144 5 -7 -23 c-37 -138 -33
-362 8 -502 128 -430 529 -717 966 -693 432 24 777 307 887 727 33 125 35 323
5 443 l-19 77 76 0 c42 0 364 5 716 11 352 6 738 11 858 10 l218 -2 29 31 c70
75 64 259 -12 330 -18 16 -35 20 -98 20 l-76 0 3 292 c2 161 6 335 9 386 6 89
7 92 30 92 l24 0 0 165 0 165 -30 0 c-30 0 -30 1 -30 55 0 30 5 55 10 55 6 0
10 45 10 115 0 108 -1 115 -20 115 -14 0 -20 7 -20 23 0 44 -138 288 -342 606
l-93 145 -98 28 c-54 15 -117 38 -140 49 -101 51 -96 43 -328 513 l-217 441
69 3 c38 2 69 5 69 8 0 2 -34 55 -75 117 -81 120 -243 298 -388 426 -79 70
-96 80 -182 109 -66 23 -128 35 -203 42 -114 10 -1295 30 -1774 30 l-287 0 -8
-22 c-4 -13 -7 -89 -5 -170 l3 -148 -26 0 -25 0 0 179 c0 140 -3 180 -13 184
-9 3 -12 16 -9 36 9 65 87 61 -1089 61 l-1069 0 0 50 0 51 123 -6 c561 -27
1363 -43 1337 -27 -8 5 -141 37 -295 72 -154 34 -283 65 -287 69 -7 6 107 295
145 368 9 18 17 34 17 38 0 11 -37 4 -93 -19z m-1384 -483 l167 -6 0 -53 0
-54 -1150 0 -1150 0 0 44 0 44 103 6 c56 3 356 11 667 16 311 6 621 12 690 14
140 3 420 -1 673 -11z m2517 -1095 c0 -35 -4 -69 -8 -76 -7 -10 -293 -12
-1398 -10 l-1389 3 -3 49 c-2 27 -1 60 3 73 l5 23 1395 0 1395 0 0 -62z
m-3552 -50 l-3 -73 -1216 -3 -1217 -2 -6 22 c-8 31 -8 113 1 121 3 4 555 7
1225 7 l1219 0 -3 -72z m5312 -368 l0 -350 -545 0 -545 0 0 103 c0 56 -3 213
-7 350 l-6 247 551 0 552 0 0 -350z m394 12 c60 -185 111 -343 114 -349 3 -10
-43 -13 -212 -13 l-216 0 0 350 0 350 103 0 102 0 109 -338z m-2170 222 c23
-9 22 -111 -1 -136 -15 -17 -72 -18 -1388 -18 -1053 0 -1374 3 -1383 12 -7 7
-12 38 -12 70 0 44 4 59 18 67 19 11 2738 16 2766 5z m-3539 -109 l0 -70
-1214 -3 c-965 -2 -1216 0 -1223 10 -9 16 -11 122 -1 131 3 4 554 6 1222 5
l1216 -3 0 -70z m3550 -200 l0 -70 -1397 -3 -1398 -2 0 63 c0 36 5 68 12 75 9
9 328 11 1398 10 l1385 -3 0 -70z m-3550 -40 l0 -70 -1214 -3 c-965 -2 -1216
0 -1223 10 -9 16 -11 122 -1 131 3 4 554 6 1222 5 l1216 -3 0 -70z m3539 -131
c20 -8 23 -123 4 -142 -9 -9 -332 -12 -1394 -12 -1251 0 -1382 1 -1388 16 -3
9 -6 40 -6 69 0 41 4 56 18 64 19 11 2738 16 2766 5z m-3545 -58 c7 -8 11 -37
9 -68 l-3 -53 -1220 0 -1220 0 -3 47 c-2 26 2 56 8 68 11 20 14 20 1214 20
1027 0 1205 -2 1215 -14z"/>
</g>
</svg>
